<?xml version="1.0" encoding="UTF-8" standalone="no" ?>
<!DOCTYPE svg PUBLIC "-//W3C//DTD SVG 1.1//EN" "http://www.w3.org/Graphics/SVG/1.1/DTD/svg11.dtd">
<svg xmlns="http://www.w3.org/2000/svg" xmlns:xlink="http://www.w3.org/1999/xlink" version="1.1" width="1280" height="1024" viewBox="0 0 1280 1024" xml:space="preserve">
<desc>Created with Fabric.js 5.3.0</desc>
<defs>
</defs>
<g transform="matrix(1 0 0 1 640 512)" id="background-logo"  >
<rect style="stroke: none; stroke-width: 0; stroke-dasharray: none; stroke-linecap: butt; stroke-dashoffset: 0; stroke-linejoin: miter; stroke-miterlimit: 4; fill: rgb(255,255,255); fill-opacity: 0; fill-rule: nonzero; opacity: 1;"  paint-order="stroke"  x="-640" y="-512" rx="0" ry="0" width="1280" height="1024" />
</g>
<g transform="matrix(1.9211538461538462 0 0 1.9211538461538462 640 399.9536153681982)" id="logo-logo"  >
<g style=""  paint-order="stroke"   >
		<g transform="matrix(1.096969446275794 0 0 1.096969446275794 -11.871842102213236 18.71166306542932)"  >
<linearGradient id="SVGID_2_365637" gradientUnits="userSpaceOnUse" gradientTransform="matrix(1 0 0 1 0 0)"  x1="233.4844876" y1="154.1535789" x2="152.6805295" y2="193.9584844">
<stop offset="0%" style="stop-color:rgb(31,108,141);stop-opacity: 1"/>
<stop offset="31.93717%" style="stop-color:rgb(77,188,136);stop-opacity: 1"/>
<stop offset="51.57068%" style="stop-color:rgb(74,174,131);stop-opacity: 1"/>
<stop offset="100%" style="stop-color:rgb(15,17,54);stop-opacity: 1"/>
</linearGradient>
<path style="stroke: none; stroke-width: 1; stroke-dasharray: none; stroke-linecap: butt; stroke-dashoffset: 0; stroke-linejoin: miter; stroke-miterlimit: 4; fill: url(#SVGID_2_365637); fill-rule: nonzero; opacity: 1;"  paint-order="stroke"  transform=" translate(-176.67760005000002, -167.0575973004128)" d="M 130.5776778 181.8150211 C 133.4009224 182.12115359999999 136.2684631 182.5687639 138.9427521 182.5577821 C 144.1815838 182.5362691 149.4187046 182.1072616 154.59831780000002 181.2801582 C 164.8085929 179.64973669999998 174.79972030000002 176.47069929999998 184.13450440000003 171.8137085 C 202.74182230000002 162.5307827 218.68040800000003 147.40824859999998 229.38283950000002 128.8820771 C 228.1934683 142.7903308 226.50402110000002 156.8544559 221.46246680000002 169.7699509 C 216.42091250000001 182.6854459 207.61884920000003 194.4942281 195.4966047 200.1491459 C 188.571572 203.3796126 180.9611188 204.4441113 173.4525323 204.75075760000001 C 166.7230216 205.025587 160.5839095 205.9568441 153.8859454 204.13305870000002 C 145.9066856 201.96039000000002 138.7883557 197.05382570000003 132.7423597 191.15444570000002 C 130.6609799 189.1235387 128.73225730000001 186.94951650000002 126.716345 184.85164550000002 C 125.79160900000001 183.8893136 124.3599068 182.9418443 123.9723606 181.66345450000003 C 126.0629507 181.41396630000003 128.3059745 181.56869380000003 130.5776778 181.81502110000002 Z" stroke-linecap="round" />
</g>
		<g transform="matrix(1.096969446275794 0 0 1.096969446275794 -17.136809278409885 -83.55994111666948)"  >
<linearGradient id="SVGID_3_365638" gradientUnits="userSpaceOnUse" gradientTransform="matrix(0.9164236163244599 -0.40020963936766835 0.40020963936766835 0.9164236163244599 -29.5259847 68.5858158)"  x1="200.3196279" y1="84.4146296" x2="159.9382468" y2="84.4146296">
<stop offset="0%" style="stop-color:rgb(177,220,195);stop-opacity: 1"/>
<stop offset="47.12042%" style="stop-color:rgb(77,188,136);stop-opacity: 1"/>
<stop offset="89.00524%" style="stop-color:rgb(31,108,141);stop-opacity: 1"/>
</linearGradient>
<path style="stroke: none; stroke-width: 1; stroke-dasharray: none; stroke-linecap: butt; stroke-dashoffset: 0; stroke-linejoin: miter; stroke-miterlimit: 4; fill: url(#SVGID_3_365638); fill-rule: nonzero; opacity: 1;"  paint-order="stroke"  transform=" translate(-171.87804324003486, -73.82655560703623)" d="M 177.0626171 56.8491659 C 175.52783570000003 57.555141400000004 174.61475380000002 59.144581300000006 174.5972206 60.8084531 C 172.61637330000002 61.6471617 170.6535393 62.5293167 168.70513350000002 63.446271100000004 L 168.33652080000002 62.58093220000001 C 162.74347120000002 65.20537990000001 157.2801152 68.1427809 151.96874870000002 71.3517389 C 152.29145040000003 72.98329030000001 152.68129670000002 74.5633012 153.1453791 76.10916470000001 C 158.65537250000003 72.7156731 164.3425545 69.65466070000001 170.1712746 66.91144910000001 L 169.8026619 66.04611020000002 C 171.6850913 65.15950390000002 173.57363900000001 64.31151950000002 175.4766432 63.49825840000001 C 176.60738880000002 65.0169091 178.6058519 65.61891250000001 180.36344200000002 64.8104485 C 182.44285570000002 63.853950600000005 183.40395930000003 61.29033580000001 182.4922553 59.091390700000005 C 181.5841804 56.90119850000001 179.1420309 55.89266800000001 177.0626172 56.8491659 Z M 179.8632316 61.7082058 C 179.7156345 61.9209355 179.5216602 62.0929699 179.2823826 62.2030339 C 178.9935975 62.3358705 178.6780407 62.3568394 178.3914166 62.2816904 C 177.97696520000002 62.1825938 177.5966458 61.8814604 177.40925510000002 61.429491500000005 C 177.09574970000003 60.6733455 177.42579320000002 59.786795600000005 178.14367640000003 59.4565805 C 178.86155960000005 59.1263654 179.70327640000002 59.4739238 180.01678190000004 60.2300698 C 180.22579290000004 60.7341848 180.14191290000005 61.290215800000006 179.86323160000003 61.7082058 Z M 186.0133698 61.1145835 C 184.4703288 61.8243583 183.5490376 63.4175743 183.54332069999998 65.0863698 C 178.50577249999998 67.3207541 173.54858099999998 69.7252305 168.65622839999997 72.2860923 L 168.25462749999997 71.43592740000001 C 163.51079729999998 73.92847120000002 158.84008759999998 76.57365430000002 154.24612749999997 79.38022950000001 C 154.81847949999997 80.85557250000001 155.44864899999996 82.30432040000001 156.14584039999997 83.70152120000002 C 160.76925399999996 80.87110200000002 165.47760439999996 78.19824570000002 170.26268239999996 75.68672850000002 L 169.86108149999995 74.83656360000002 C 174.65441919999995 72.32124710000002 179.51620279999995 69.97101590000003 184.44286939999995 67.77727630000003 C 185.57821719999995 69.28345100000003 187.56486399999994 69.88053070000002 189.31419449999996 69.07586600000002 C 191.40186789999996 68.11556880000002 192.35110469999995 65.54705340000002 191.44302979999995 63.35686120000002 C 190.53132589999996 61.157916100000016 188.10104299999995 60.15428610000002 186.01336969999994 61.11458330000002 Z M 188.8841648 65.8585322 C 188.7344766 66.1136599 188.5219204 66.3356149 188.23313530000001 66.4684515 C 187.92783100000003 66.6088867 187.5968224 66.6163082 187.298382 66.5362355 C 186.8967924 66.4208636 186.54020640000002 66.12953130000001 186.3600298 65.6949622 C 186.0465244 64.9388162 186.3765459 64.05221320000001 187.0944291 63.72199810000001 C 187.81231230000003 63.391783000000004 188.6540511 63.73939450000001 188.96755660000002 64.4955405 C 189.15492530000003 64.9474563 189.10975360000003 65.4546681 188.88416480000004 65.8585322 Z M 177.2375999 74.4757151 C 175.595544 75.23103520000001 174.67413249999998 76.989862 174.79571819999998 78.7760779 C 172.01631419999998 80.2718479 169.25860289999997 81.819794 166.51885449999997 83.4112096 L 166.07239869999998 82.57131820000001 C 163.43166519999997 84.1171884 160.8089953 85.7064818 158.20789539999998 87.34794450000001 C 159.0381574 88.6632799 159.9390987 89.93574490000002 160.91071929999998 91.16533940000001 C 163.3446645 89.64213830000001 165.78838539999998 88.1662359 168.2547501 86.72122750000001 L 167.82737509999998 85.90363640000001 C 170.49283709999997 84.34639140000002 173.17165989999998 82.84509190000001 175.87677749999997 81.38349240000001 C 177.03339539999996 82.7039055 178.89276169999997 83.1836179 180.53481759999997 82.4282977 C 182.62249099999997 81.4680005 183.57533489999997 78.908185 182.66725999999997 76.7179928 C 181.75555609999998 74.5190477 179.32527319999997 73.5154177 177.23759989999996 74.4757149 Z M 179.4537583 79.8208833 C 179.1814421 79.9461445 178.8978784 79.97311520000001 178.6220754 79.92406580000001 C 178.1792664 79.8275911 177.7834952 79.51291020000001 177.5925195 79.05229460000001 C 177.2862062 78.31349530000001 177.59045360000002 77.45946610000001 178.2691517 77.10590250000001 L 178.3186592 77.08312980000001 C 179.0365424 76.7529147 179.8782592 77.1004731 180.19178670000002 77.8566722 C 180.50529210000002 78.6128182 180.17164160000002 79.4906682 179.45375830000003 79.8208833 Z" stroke-linecap="round" />
</g>
		<g transform="matrix(1.096969446275794 0 0 1.096969446275794 -45.31446007676095 -10.789175885002635)"  >
<linearGradient id="SVGID_4_365639" gradientUnits="userSpaceOnUse" gradientTransform="matrix(0.9164236163244599 -0.40020963936766835 0.40020963936766835 0.9164236163244599 -29.5259847 68.5858158)"  x1="107.9387939" y1="98.0120207" x2="120.9739247" y2="126.1772141">
<stop offset="0%" style="stop-color:rgb(77,188,136);stop-opacity: 1"/>
<stop offset="100%" style="stop-color:rgb(31,108,141);stop-opacity: 1"/>
</linearGradient>
<path style="stroke: none; stroke-width: 1; stroke-dasharray: none; stroke-linecap: butt; stroke-dashoffset: 0; stroke-linejoin: miter; stroke-miterlimit: 4; fill: url(#SVGID_4_365639); fill-rule: nonzero; opacity: 1;"  paint-order="stroke"  transform=" translate(-146.19122863091874, -140.16456117202551)" d="M 201.9291415 196.7332716 C 199.777933 197.9194265 197.5576595 199.0338861 195.2884756 200.07767529999998 C 153.5685004 219.26821359999997 108.5789975 207.8705791 94.7918841 174.6173428 C 81.0047708 141.3641065 100.91370640000001 92.26974299999999 142.6336816 73.07920469999999 L 143.02979159999998 72.89700029999999 C 142.24884579999997 77.53028149999999 142.72057499999997 82.43603639999999 144.63765619999998 87.05985799999999 C 147.08086079999998 92.95264049999999 151.4367615 97.34463769999999 156.6038591 99.75942239999999 C 128.60380809999998 117.34776919999999 114.5379964 148.2827567 124.80084579999999 173.03579589999998 C 135.5501851 198.9622035 169.18561649999998 208.8763713 201.9291415 196.7332717 Z M 147.3014831 70.9320888 C 143.6870834 81.2658584 150.06393400000002 94.68195560000001 160.26611350000002 97.4477239 C 153.3067042 90.0979411 149.07499460000003 81.11362679999999 147.3014831 70.9320888 L 147.3014831 70.9320888 Z" stroke-linecap="round" />
</g>
		<g transform="matrix(1.096969446275794 0 0 1.096969446275794 -72.47230274052055 -8.264252484374481)"  >
<linearGradient id="SVGID_5_365640" gradientUnits="userSpaceOnUse" gradientTransform="matrix(0.9164236163244599 -0.40020963936766835 0.40020963936766835 0.9164236163244599 -29.5259847 68.5858158)"  x1="113.8299947" y1="129.5023888" x2="87.7563905" y2="116.6601658">
<stop offset="0%" style="stop-color:rgb(177,220,195);stop-opacity: 1"/>
<stop offset="47.12042%" style="stop-color:rgb(77,188,136);stop-opacity: 1"/>
<stop offset="89.00524%" style="stop-color:rgb(31,108,141);stop-opacity: 1"/>
</linearGradient>
<path style="stroke: none; stroke-width: 1; stroke-dasharray: none; stroke-linecap: butt; stroke-dashoffset: 0; stroke-linejoin: miter; stroke-miterlimit: 4; fill: url(#SVGID_5_365640); fill-rule: nonzero; opacity: 1;"  paint-order="stroke"  transform=" translate(-121.4340735834739, -142.46628745)" d="M 110.6277619 174.5877101 C 117.0024092 189.9627671 130.7617267 200.23338890000002 147.84985519999998 204.40895030000001 C 125.46168839999999 202.64031000000003 106.69409919999998 191.47556170000001 98.91767299999998 172.71954430000002 C 87.32151269999999 144.75068310000003 101.91513909999998 100.98861340000002 138.35125829999998 80.52362460000002 C 138.65676559999997 83.32216250000002 139.34748539999998 86.07811320000002 140.41097989999997 88.71432550000002 C 111.11907829999997 110.91230110000001 100.11624599999998 149.23491040000002 110.62776189999997 174.5877101 Z" stroke-linecap="round" />
</g>
		<g transform="matrix(1.096969446275794 0 0 1.096969446275794 11.871842058840116 -18.71166306542932)"  >
<linearGradient id="SVGID_6_365641" gradientUnits="userSpaceOnUse" gradientTransform="matrix(-1 -1.2246e-16 1.2246e-16 -1 310.096557 300.0000007)"  x1="168.5810453" y1="154.1535789" x2="87.7770873" y2="193.9584844">
<stop offset="0%" style="stop-color:rgb(31,108,141);stop-opacity: 1"/>
<stop offset="31.93717%" style="stop-color:rgb(77,188,136);stop-opacity: 1"/>
<stop offset="51.57068%" style="stop-color:rgb(74,174,131);stop-opacity: 1"/>
<stop offset="100%" style="stop-color:rgb(15,17,54);stop-opacity: 1"/>
</linearGradient>
<path style="stroke: none; stroke-width: 1; stroke-dasharray: none; stroke-linecap: butt; stroke-dashoffset: 0; stroke-linejoin: miter; stroke-miterlimit: 4; fill: url(#SVGID_6_365641); fill-rule: nonzero; opacity: 1;"  paint-order="stroke"  transform=" translate(-198.32239994999998, -132.9424026995872)" d="M 244.4223222 118.1849789 C 241.5990776 117.8788464 238.7315369 117.4312361 236.0572479 117.4422179 C 230.8184162 117.4637309 225.5812954 117.8927384 220.40168219999998 118.7198418 C 210.1914071 120.3502633 200.20027969999998 123.5293007 190.86549559999997 128.1862915 C 172.25817769999998 137.4692173 156.31959199999997 152.59175140000002 145.61716049999998 171.1179229 C 146.8065317 157.2096692 148.49597889999998 143.1455441 153.53753319999998 130.2300491 C 158.57908749999999 117.31455410000001 167.38115079999997 105.5057719 179.5033953 99.8508541 C 186.428428 96.62038740000001 194.0388812 95.55588870000001 201.5474677 95.2492424 C 208.2769784 94.974413 214.4160905 94.0431559 221.1140546 95.8669413 C 229.0933144 98.03961 236.2116443 102.9461743 242.2576403 108.84555429999999 C 244.3390201 110.87646129999999 246.26774269999999 113.05048349999998 248.28365499999998 115.14835449999998 C 249.20839099999998 116.11068639999998 250.6400932 117.05815569999999 251.02763939999997 118.33654549999999 C 248.93704929999996 118.58603369999999 246.69402549999998 118.43130619999998 244.42232219999997 118.18497889999999 Z" stroke-linecap="round" />
</g>
		<g transform="matrix(1.096969446275794 0 0 1.096969446275794 17.13680923503682 83.55994111666945)"  >
<linearGradient id="SVGID_7_365642" gradientUnits="userSpaceOnUse" gradientTransform="matrix(-0.91642361632446 0.4002096393676682 -0.4002096393676682 -0.91642361632446 339.6225425 231.4141842)"  x1="140.8405807" y1="58.4396465" x2="100.4591996" y2="58.4396465">
<stop offset="0%" style="stop-color:rgb(177,220,195);stop-opacity: 1"/>
<stop offset="47.12042%" style="stop-color:rgb(77,188,136);stop-opacity: 1"/>
<stop offset="89.00524%" style="stop-color:rgb(31,108,141);stop-opacity: 1"/>
</linearGradient>
<path style="stroke: none; stroke-width: 1; stroke-dasharray: none; stroke-linecap: butt; stroke-dashoffset: 0; stroke-linejoin: miter; stroke-miterlimit: 4; fill: url(#SVGID_7_365642); fill-rule: nonzero; opacity: 1;"  paint-order="stroke"  transform=" translate(-203.12195675996514, -226.17344439296377)" d="M 197.9373829 243.1508341 C 199.47216429999997 242.4448586 200.38524619999998 240.8554187 200.4027794 239.1915469 C 202.38362669999998 238.3528383 204.3464607 237.4706833 206.29486649999998 236.55372889999998 L 206.66347919999998 237.4190678 C 212.25652879999998 234.7946201 217.7198848 231.85721909999998 223.03125129999998 228.64826109999998 C 222.70854959999997 227.01670969999998 222.31870329999998 225.4366988 221.8546209 223.8908353 C 216.34462749999997 227.2843269 210.6574455 230.34533929999998 204.8287254 233.0885509 L 205.1973381 233.9538898 C 203.3149087 234.84049610000002 201.42636099999999 235.68848050000003 199.5233568 236.5017416 C 198.39261119999998 234.9830909 196.3941481 234.3810875 194.63655799999998 235.1895515 C 192.55714429999998 236.14604939999998 191.59604069999997 238.7096642 192.5077447 240.9086093 C 193.4158196 243.0988015 195.8579691 244.10733199999999 197.9373828 243.1508341 Z M 195.1367684 238.2917942 C 195.2843655 238.0790645 195.4783398 237.9070301 195.7176174 237.7969661 C 196.0064025 237.6641295 196.3219593 237.6431606 196.6085834 237.7183096 C 197.02303479999998 237.8174062 197.4033542 238.1185396 197.59074489999998 238.5705085 C 197.90425029999997 239.3266545 197.57420679999998 240.2132044 196.85632359999997 240.5434195 C 196.13844039999995 240.8736346 195.29672359999998 240.5260762 194.98321809999996 239.7699302 C 194.77420709999996 239.2658152 194.85808709999995 238.7097842 195.13676839999997 238.2917942 Z M 188.9866302 238.8854165 C 190.5296712 238.1756417 191.4509624 236.5824257 191.45667930000002 234.9136302 C 196.49422750000002 232.6792459 201.45141900000002 230.2747695 206.34377160000003 227.7139077 L 206.74537250000003 228.5640726 C 211.48920270000002 226.0715288 216.15991240000002 223.4263457 220.75387250000003 220.61977050000002 C 220.18152050000003 219.1444275 219.55135100000004 217.6956796 218.85415960000003 216.29847880000003 C 214.23074600000004 219.12889800000002 209.52239560000004 221.80175430000003 204.73731760000004 224.3132715 L 205.13891850000005 225.16343640000002 C 200.34558080000005 227.67875290000003 195.48379720000005 230.02898410000003 190.55713060000005 232.22272370000002 C 189.42178280000005 230.71654900000001 187.43513600000006 230.11946930000002 185.68580550000004 230.924134 C 183.59813210000004 231.88443120000002 182.64889530000005 234.45294660000002 183.55697020000005 236.6431388 C 184.46867410000004 238.8420839 186.89895700000005 239.8457139 188.98663030000006 238.8854167 Z M 186.1158352 234.1414678 C 186.2655234 233.88634009999998 186.4780796 233.66438509999998 186.76686469999999 233.53154849999999 C 187.07216899999997 233.39111329999997 187.4031776 233.38369179999998 187.701618 233.4637645 C 188.1032076 233.5791364 188.45979359999998 233.8704687 188.6399702 234.3050378 C 188.9534756 235.0611838 188.6234541 235.94778680000002 187.9055709 236.27800190000002 C 187.18768769999997 236.60821700000002 186.3459489 236.26060550000003 186.03244339999998 235.50445950000002 C 185.84507469999997 235.05254370000003 185.89024639999997 234.54533190000004 186.11583519999996 234.14146780000002 Z M 197.7624001 225.5242849 C 199.404456 224.7689648 200.32586750000002 223.01013799999998 200.20428180000002 221.2239221 C 202.98368580000002 219.72815210000002 205.74139710000003 218.180206 208.48114550000003 216.58879040000002 L 208.92760130000002 217.42868180000002 C 211.56833480000003 215.88281160000003 214.1910047 214.29351820000002 216.79210460000002 212.65205550000002 C 215.9618426 211.3367201 215.0609013 210.06425510000003 214.08928070000002 208.8346606 C 211.6553355 210.3578617 209.21161460000002 211.8337641 206.7452499 213.2787725 L 207.17262490000002 214.0963636 C 204.50716290000003 215.65360859999998 201.82834010000002 217.1549081 199.12322250000003 218.61650759999998 C 197.96660460000004 217.29609449999998 196.10723830000003 216.81638209999997 194.46518240000003 217.57170229999997 C 192.37750900000003 218.53199949999998 191.42466510000003 221.09181499999997 192.33274000000003 223.28200719999998 C 193.24444390000002 225.48095229999998 195.67472680000003 226.48458229999997 197.76240010000004 225.5242851 Z M 195.5462417 220.1791167 C 195.8185579 220.0538555 196.1021216 220.0268848 196.3779246 220.0759342 C 196.8207336 220.1724089 197.2165048 220.4870898 197.4074805 220.94770540000002 C 197.7137938 221.68650470000003 197.40954639999998 222.5405339 196.7308483 222.89409750000002 L 196.6813408 222.9168702 C 195.9634576 223.2470853 195.1217408 222.8995269 194.80821329999998 222.1433278 C 194.49470789999998 221.3871818 194.82835839999998 220.5093318 195.54624169999997 220.1791167 Z" stroke-linecap="round" />
</g>
		<g transform="matrix(1.096969446275794 0 0 1.096969446275794 45.31446005507439 10.789175885002635)"  >
<linearGradient id="SVGID_8_365643" gradientUnits="userSpaceOnUse" gradientTransform="matrix(-0.91642361632446 0.4002096393676682 -0.4002096393676682 -0.91642361632446 339.6225425 231.4141842)"  x1="48.4597467" y1="72.0370376" x2="61.4948775" y2="100.202231">
<stop offset="0%" style="stop-color:rgb(77,188,136);stop-opacity: 1"/>
<stop offset="100%" style="stop-color:rgb(31,108,141);stop-opacity: 1"/>
</linearGradient>
<path style="stroke: none; stroke-width: 1; stroke-dasharray: none; stroke-linecap: butt; stroke-dashoffset: 0; stroke-linejoin: miter; stroke-miterlimit: 4; fill: url(#SVGID_8_365643); fill-rule: nonzero; opacity: 1;"  paint-order="stroke"  transform=" translate(-228.80877138885074, -159.83543882797449)" d="M 173.0708585 103.2667284 C 175.222067 102.0805735 177.4423405 100.96611390000001 179.7115244 99.9223247 C 221.4314996 80.7317864 266.4210025 92.1294209 280.2081159 125.38265720000001 C 293.9952293 158.6358935 274.0862936 207.730257 232.3663184 226.9207953 L 231.97020840000002 227.1029997 C 232.75115420000003 222.4697185 232.27942500000003 217.5639636 230.36234380000002 212.940142 C 227.91913920000002 207.0473595 223.5632385 202.6553623 218.3961409 200.2405776 C 246.39619190000002 182.65223079999998 260.4620036 151.7172433 250.1991542 126.96420409999999 C 239.4498149 101.03779649999998 205.81438350000002 91.12362869999998 173.0708585 103.26672829999998 Z M 227.6985169 229.0679112 C 231.3129166 218.7341416 224.93606599999998 205.3180444 214.73388649999998 202.5522761 C 221.6932958 209.9020589 225.92500539999997 218.8863732 227.6985169 229.0679112 L 227.6985169 229.0679112 Z" stroke-linecap="round" />
</g>
		<g transform="matrix(1.096969446275794 0 0 1.096969446275794 72.47230269714743 8.264252484374481)"  >
<linearGradient id="SVGID_9_365644" gradientUnits="userSpaceOnUse" gradientTransform="matrix(-0.91642361632446 0.4002096393676682 -0.4002096393676682 -0.91642361632446 339.6225425 231.4141842)"  x1="54.3509474" y1="103.5274056" x2="28.2773433" y2="90.6851827">
<stop offset="0%" style="stop-color:rgb(177,220,195);stop-opacity: 1"/>
<stop offset="47.12042%" style="stop-color:rgb(77,188,136);stop-opacity: 1"/>
<stop offset="89.00524%" style="stop-color:rgb(31,108,141);stop-opacity: 1"/>
</linearGradient>
<path style="stroke: none; stroke-width: 1; stroke-dasharray: none; stroke-linecap: butt; stroke-dashoffset: 0; stroke-linejoin: miter; stroke-miterlimit: 4; fill: url(#SVGID_9_365644); fill-rule: nonzero; opacity: 1;"  paint-order="stroke"  transform=" translate(-253.5659264165261, -157.53371255000002)" d="M 264.3722381 125.4122899 C 257.9975908 110.0372329 244.2382733 99.7666111 227.15014480000002 95.59104970000001 C 249.53831160000001 97.35969010000001 268.3059008 108.52443830000001 276.082327 127.28045570000002 C 287.67848730000003 155.24931690000003 273.0848609 199.01138660000004 236.64874170000002 219.47637540000002 C 236.34323440000003 216.6778375 235.65251460000002 213.9218868 234.58902010000003 211.28567450000003 C 263.88092170000004 189.08769890000002 274.883754 150.7650896 264.3722381 125.41228990000003 Z" stroke-linecap="round" />
</g>
</g>
</g>
<g transform="matrix(1.9211538461538462 0 0 1.9211538461538462 647.2331442307692 693.8458556650717)" id="text-logo"  >
<g style=""  paint-order="stroke"   >
		<g transform="matrix(1 0 0 1 0 0)" id="text-logo-path-0"  >
<path style="stroke: none; stroke-width: 0; stroke-dasharray: none; stroke-linecap: butt; stroke-dashoffset: 0; stroke-linejoin: miter; stroke-miterlimit: 4; fill: rgb(228,247,238); fill-rule: nonzero; opacity: 1;"  paint-order="stroke"  transform=" translate(-55.68, 21)" d="M 15.24 -17.52 L 12.12 0 L 24.12 0 L 27.24 -17.52 L 44.76 -42 L 32.76 -42 L 23.22 -28.62 L 18.36 -42 L 6.36 -42 Z M 44.34 0 L 56.34 0 L 63.78 -42 L 51.78 -42 Z M 68.76 0 L 92.16 0 C 95.16 0 97.98 -2.34 98.52 -5.34 L 105 -42 L 93 -42 L 86.94 -7.8 C 86.82 -7.2 86.1 -6.6 85.5 -6.6 L 76.5 -6.6 L 82.8 -42 L 70.8 -42 L 64.32 -5.34 C 63.78 -2.34 65.76 0 68.76 0 Z" stroke-linecap="round" />
</g>
</g>
</g>
<g transform="matrix(1.9211538461538462 0 0 1.9211538461538462 642.0148646771988 786.38750004406)" id="tagline-e01c7688-3eb1-487f-a95d-1d23c68cfd3f-logo"  >
<g style=""  paint-order="stroke"   >
		<g transform="matrix(1 0 0 1 0 0)" id="tagline-e01c7688-3eb1-487f-a95d-1d23c68cfd3f-logo-path-0"  >
<path style="stroke: none; stroke-width: 0; stroke-dasharray: none; stroke-linecap: butt; stroke-dashoffset: 0; stroke-linejoin: miter; stroke-miterlimit: 4; fill: rgb(51,143,139); fill-rule: nonzero; opacity: 1;"  paint-order="stroke"  transform=" translate(-262.59316001793087, 10.850000000000001)" d="M 2.33 -15.93 L 0.53 -5.77 C -0.09 -2.23 1.86 0.31 5.55 0.31 C 9.08 0.31 12.06 -2.11 12.71 -5.77 L 14.51 -15.93 C 15.13 -19.47 13.14 -22.01 9.49 -22.01 C 5.95 -22.01 2.98 -19.65 2.33 -15.93 Z M 3.94 -5.77 L 5.74 -15.93 C 6.08 -17.92 6.94 -18.6 8.9 -18.6 C 10.85 -18.6 11.41 -17.86 11.1 -15.93 L 9.3 -5.77 C 8.96 -3.81 8.09 -3.1 6.17 -3.1 C 4.18 -3.1 3.6 -3.84 3.94 -5.77 Z M 37.36 -21.7 L 31.93 -21.7 L 28.12 0 L 31.53 0 L 32.95 -8.18 L 34.97 -8.18 C 39.12 -8.18 42.22 -10.97 42.94 -14.94 C 43.68 -19.1 41.32 -21.7 37.36 -21.7 Z M 35.59 -11.59 L 33.57 -11.59 L 34.75 -18.29 L 36.77 -18.29 C 39.12 -18.29 39.96 -17.36 39.52 -14.94 C 39.12 -12.59 38.01 -11.59 35.59 -11.59 Z M 60.29 -21.7 L 56.48 0 L 66.71 0 L 67.3 -3.41 L 60.48 -3.41 L 61.57 -9.46 L 67.77 -9.46 L 68.35 -12.87 L 62.15 -12.87 L 63.12 -18.29 L 69.94 -18.29 L 70.52 -21.7 Z M 93.68 -21.7 L 87.61 -21.7 L 83.79 0 L 87.2 0 L 88.88 -9.49 L 91.54 -9.49 C 93.5 -9.49 94.12 -8.77 93.78 -6.79 L 92.57 0 L 95.98 0 L 97.19 -6.79 C 97.5 -8.62 97.15 -10.14 96.25 -11.19 C 97.53 -12.28 98.42 -13.83 98.73 -15.59 C 99.39 -19.28 97.25 -21.7 93.68 -21.7 Z M 92.13 -12.9 L 89.47 -12.9 L 90.43 -18.29 L 93.09 -18.29 C 95.05 -18.29 95.67 -17.58 95.33 -15.59 C 94.98 -13.67 94.09 -12.9 92.13 -12.9 Z M 119.1 -21.7 L 111.57 0 L 114.98 0 L 115.72 -2.17 L 120.34 -2.17 L 120.34 0 L 123.75 0 L 123.84 -21.7 Z M 116.93 -5.58 L 120.44 -15.65 L 120.37 -5.58 Z M 153.23 -21.7 L 141.14 -21.7 L 140.55 -18.29 L 144.89 -18.29 L 141.67 0 L 145.08 0 L 148.3 -18.29 L 152.64 -18.29 Z M 169.07 -21.7 L 165.26 0 L 168.67 0 L 172.48 -21.7 Z M 187.92 -15.93 L 186.12 -5.77 C 185.5 -2.23 187.46 0.31 191.15 0.31 C 194.68 0.31 197.66 -2.11 198.31 -5.77 L 200.11 -15.93 C 200.73 -19.47 198.74 -22.01 195.08 -22.01 C 191.55 -22.01 188.57 -19.65 187.92 -15.93 Z M 189.53 -5.77 L 191.33 -15.93 C 191.67 -17.92 192.54 -18.6 194.49 -18.6 C 196.45 -18.6 197 -17.86 196.7 -15.93 L 194.9 -5.77 C 194.56 -3.81 193.69 -3.1 191.77 -3.1 C 189.78 -3.1 189.19 -3.84 189.53 -5.77 Z M 217.53 -21.7 L 213.71 0 L 217.12 0 L 219.39 -12.83 L 222.49 0 L 225.9 0 L 229.71 -21.7 L 226.3 -21.7 L 223.91 -8.15 L 220.63 -21.7 Z M 253.7 -15.93 L 253.43 -14.38 L 256.84 -14.38 L 257.11 -15.93 C 257.77 -19.62 255.66 -22.01 252.09 -22.01 C 248.37 -22.01 245.55 -19.5 244.93 -15.93 C 244.31 -12.52 246.85 -10.88 248.78 -9.64 C 250.82 -8.31 252.19 -7.47 251.91 -5.77 C 251.53 -3.78 250.73 -3.1 248.78 -3.1 C 246.76 -3.1 246.2 -3.81 246.54 -5.77 L 246.82 -7.32 L 243.41 -7.32 L 243.13 -5.77 C 242.48 -2.2 244.44 0.31 248.16 0.31 C 251.72 0.31 254.67 -2.08 255.32 -5.77 C 255.97 -9.52 253.05 -11.25 251.04 -12.62 C 249.12 -13.79 248.06 -14.51 248.34 -15.93 C 248.68 -17.89 249.49 -18.6 251.5 -18.6 C 253.46 -18.6 254.05 -17.92 253.7 -15.93 Z M 295.12 -21.7 L 291.31 0 L 294.72 0 L 296.98 -12.83 L 298.75 0 L 300.61 0 L 307.12 -14.11 L 304.64 0 L 308.05 0 L 311.86 -21.7 L 307.21 -21.7 L 301.01 -8.25 L 299.15 -21.7 Z M 331.45 -21.7 L 323.92 0 L 327.33 0 L 328.07 -2.17 L 332.69 -2.17 L 332.69 0 L 336.1 0 L 336.2 -21.7 Z M 329.28 -5.58 L 332.79 -15.65 L 332.72 -5.58 Z M 362.3 -21.7 L 356.19 -21.7 L 352.38 0 L 358.48 0 C 362.14 0 364.99 -2.54 365.61 -6.08 L 367.32 -15.62 C 367.94 -19.16 365.96 -21.7 362.3 -21.7 Z M 359.07 -3.41 L 356.38 -3.41 L 359.01 -18.29 L 361.71 -18.29 C 363.66 -18.29 364.25 -17.55 363.91 -15.62 L 362.2 -6.08 C 361.89 -4.15 361.03 -3.41 359.07 -3.41 Z M 385.14 -21.7 L 381.33 0 L 391.56 0 L 392.15 -3.41 L 385.33 -3.41 L 386.42 -9.46 L 392.62 -9.46 L 393.2 -12.87 L 387 -12.87 L 387.97 -18.29 L 394.79 -18.29 L 395.37 -21.7 Z M 432.98 -21.7 L 429.16 0 L 439.39 0 L 439.98 -3.41 L 433.16 -3.41 L 434.25 -9.46 L 440.45 -9.46 L 441.04 -12.87 L 434.84 -12.87 L 435.8 -18.29 L 442.62 -18.29 L 443.21 -21.7 Z M 462.64 -21.7 L 455.11 0 L 458.52 0 L 459.26 -2.17 L 463.88 -2.17 L 463.88 0 L 467.29 0 L 467.39 -21.7 Z M 460.47 -5.58 L 463.98 -15.65 L 463.91 -5.58 Z M 493.74 -15.93 L 493.46 -14.38 L 496.87 -14.38 L 497.15 -15.93 C 497.8 -19.62 495.69 -22.01 492.13 -22.01 C 488.4 -22.01 485.58 -19.5 484.96 -15.93 C 484.34 -12.52 486.89 -10.88 488.81 -9.64 C 490.85 -8.31 492.22 -7.47 491.94 -5.77 C 491.57 -3.78 490.76 -3.1 488.81 -3.1 C 486.79 -3.1 486.23 -3.81 486.58 -5.77 L 486.85 -7.32 L 483.44 -7.32 L 483.17 -5.77 C 482.51 -2.2 484.47 0.31 488.19 0.31 C 491.75 0.31 494.7 -2.08 495.35 -5.77 C 496 -9.52 493.09 -11.25 491.07 -12.62 C 489.15 -13.79 488.09 -14.51 488.37 -15.93 C 488.71 -17.89 489.52 -18.6 491.54 -18.6 C 493.49 -18.6 494.08 -17.92 493.74 -15.93 Z M 514.79 -8.99 L 513.21 0 L 516.62 0 L 518.2 -8.99 L 524.77 -21.7 L 521.05 -21.7 L 517.2 -13.02 L 516.4 -21.7 L 512.68 -21.7 Z" stroke-linecap="round" />
</g>
</g>
</g>
</svg>