<?xml version="1.0" encoding="UTF-8" standalone="no" ?>
<!DOCTYPE svg PUBLIC "-//W3C//DTD SVG 1.1//EN" "http://www.w3.org/Graphics/SVG/1.1/DTD/svg11.dtd">
<svg xmlns="http://www.w3.org/2000/svg" xmlns:xlink="http://www.w3.org/1999/xlink" version="1.1" width="1280" height="1024" viewBox="0 0 1280 1024" xml:space="preserve">
<desc>Created with Fabric.js 5.3.0</desc>
<defs>
</defs>
<g transform="matrix(1 0 0 1 640 512)" id="background-logo"  >
<rect style="stroke: none; stroke-width: 0; stroke-dasharray: none; stroke-linecap: butt; stroke-dashoffset: 0; stroke-linejoin: miter; stroke-miterlimit: 4; fill: rgb(11,18,37); fill-rule: nonzero; opacity: 1;"  paint-order="stroke"  x="-640" y="-512" rx="0" ry="0" width="1280" height="1024" />
</g>
<g transform="matrix(-1.9211538461538462 0 0 1.9211538461538462 640 387.58809703472093)" id="logo-logo"  >
<g style=""  paint-order="stroke"   >
		<g transform="matrix(0.23679433160515645 0 0 0.23679433160515645 46.761067459651144 73.06175331687587)"  >
<path style="stroke: none; stroke-width: 1; stroke-dasharray: none; stroke-linecap: butt; stroke-dashoffset: 0; stroke-linejoin: miter; stroke-miterlimit: 4; fill: rgb(166,206,44); fill-rule: nonzero; opacity: 1;"  paint-order="stroke"  transform=" translate(-796.7206505696624, -910.5614770714955)" d="M 842.3 840.6 L 929.0999999999999 821.6 C 934.8999999999999 820.3000000000001 939.4999999999999 826.6 936.3999999999999 831.8000000000001 L 867.7999999999998 948.3000000000001 C 865.0999999999998 952.8000000000001 860.7999999999998 956.1 855.5999999999998 957.3000000000001 L 664.3999999999999 999.5000000000001 C 658.4999999999999 1000.9000000000001 653.9999999999999 994.5000000000001 656.9999999999999 989.4000000000001 L 700.1999999999999 915.9000000000001 L 725.6999999999999 872.4000000000001 C 728.4 867.9000000000001 732.6999999999999 864.6000000000001 737.9 863.5000000000001 L 842.3 840.6 z" stroke-linecap="round" />
</g>
		<g transform="matrix(0.23679433160515645 0 0 0.23679433160515645 28.302949311029238 58.80673455424551)"  >
<g style=""  paint-order="stroke"   >
		<g transform="matrix(1 0 0 1 -176.75000000000023 115.29999999999995)"  >
<path style="stroke: none; stroke-width: 1; stroke-dasharray: none; stroke-linecap: butt; stroke-dashoffset: 0; stroke-linejoin: miter; stroke-miterlimit: 4; fill: rgb(166,206,44); fill-rule: nonzero; opacity: 1;"  paint-order="stroke"  transform=" translate(-542.0206505696624, -965.6614770714957)" d="M 587.6 895.7 L 674.4 876.7 C 680.1999999999999 875.4000000000001 684.8 881.7 681.6999999999999 886.9000000000001 L 613.0999999999999 1003.4000000000001 C 610.3999999999999 1007.9000000000001 606.0999999999999 1011.2 600.8999999999999 1012.4000000000001 L 409.6999999999999 1054.6000000000001 C 403.7999999999999 1056.0000000000002 399.2999999999999 1049.6000000000001 402.2999999999999 1044.5000000000002 L 445.4999999999999 971.0000000000002 L 470.9999999999999 927.5000000000002 C 473.6999999999999 923.0000000000002 477.9999999999999 919.7000000000003 483.1999999999999 918.6000000000003 L 587.6 895.7 z" stroke-linecap="round" />
</g>
		<g transform="matrix(1 0 0 1 176.70000000000005 -115.3000000000003)"  >
<path style="stroke: none; stroke-width: 1; stroke-dasharray: none; stroke-linecap: butt; stroke-dashoffset: 0; stroke-linejoin: miter; stroke-miterlimit: 4; fill: rgb(166,206,44); fill-rule: nonzero; opacity: 1;"  paint-order="stroke"  transform=" translate(-895.4706505696627, -735.0614770714955)" d="M 941.1 665.1 L 1027.9 646.1 C 1033.7 644.8000000000001 1038.3000000000002 651.1 1035.2 656.3000000000001 L 966.6 772.8000000000001 C 963.9 777.3000000000001 959.6 780.6 954.4 781.8000000000001 L 763.1 824 C 757.2 825.4 752.7 819 755.7 813.9 L 798.9000000000001 740.4 L 824.4000000000001 696.9 C 827.1000000000001 692.4 831.4000000000001 689.1 836.6000000000001 688 L 941.1 665.1 z" stroke-linecap="round" />
</g>
		<g transform="matrix(1 0 0 1 -77.95000000000027 -60.20000000000027)"  >
<path style="stroke: none; stroke-width: 1; stroke-dasharray: none; stroke-linecap: butt; stroke-dashoffset: 0; stroke-linejoin: miter; stroke-miterlimit: 4; fill: rgb(166,206,44); fill-rule: nonzero; opacity: 1;"  paint-order="stroke"  transform=" translate(-640.8206505696623, -790.1614770714955)" d="M 686.4 720.2 L 773.1999999999999 701.2 C 778.9999999999999 699.9000000000001 783.5999999999999 706.2 780.4999999999999 711.4000000000001 L 711.8999999999999 827.9000000000001 C 709.1999999999998 832.4000000000001 704.8999999999999 835.7 699.6999999999998 836.9000000000001 L 508.49999999999983 879.1000000000001 C 502.59999999999985 880.5000000000001 498.09999999999985 874.1000000000001 501.09999999999985 869.0000000000001 L 544.2999999999998 795.5000000000001 L 569.7999999999998 752.0000000000001 C 572.4999999999999 747.5000000000001 576.7999999999998 744.2000000000002 581.9999999999999 743.1000000000001 L 686.4 720.2 z" stroke-linecap="round" />
</g>
</g>
</g>
		<g transform="matrix(0.23679433160515645 0 0 0.23679433160515645 24.10056835804869 -35.54275151558437)"  >
<g style=""  paint-order="stroke"   >
		<g transform="matrix(1 0 0 1 179.8499999999999 71.39999999999975)"  >
<linearGradient id="SVGID_341530" gradientUnits="userSpaceOnUse" gradientTransform="matrix(1 0 0 1 738.3599445579429 402.2369462105694)"  x1="0" y1="0" x2="0" y2="242">
<stop offset="0%" style="stop-color:rgb(250,217,97);stop-opacity: 1"/>
<stop offset="100%" style="stop-color:rgb(247,107,28);stop-opacity: 1"/>
</linearGradient>
<path style="stroke: none; stroke-width: 1; stroke-dasharray: none; stroke-linecap: butt; stroke-dashoffset: 0; stroke-linejoin: miter; stroke-miterlimit: 4; fill: url(#SVGID_341530); fill-rule: nonzero; opacity: 1;"  paint-order="stroke"  transform=" translate(-880.8736845654769, -523.3166096193758)" d="M 750.5 442.9 L 934.3 402.59999999999997 C 941.6999999999999 400.99999999999994 949.0999999999999 404.79999999999995 951.8 411.79999999999995 L 1022.1999999999999 582.6999999999999 C 1025.8999999999999 591.4999999999999 1020.5999999999999 601.5999999999999 1011.1999999999999 603.6999999999999 L 935.1999999999999 620.4 L 827.4 644 C 820 645.7 812.6 641.8 809.9 634.8 L 766.1 528.1999999999999 L 739.6 463.69999999999993 C 735.8 454.9 741.1 444.9 750.5 442.9 z" stroke-linecap="round" />
</g>
		<g transform="matrix(1 0 0 1 -74.85000000000014 126.5)"  >
<linearGradient id="SVGID_341531" gradientUnits="userSpaceOnUse" gradientTransform="matrix(1 0 0 1 483.6599445579428 457.33694621056964)"  x1="0" y1="0" x2="0" y2="242">
<stop offset="0%" style="stop-color:rgb(250,217,97);stop-opacity: 1"/>
<stop offset="100%" style="stop-color:rgb(247,107,28);stop-opacity: 1"/>
</linearGradient>
<path style="stroke: none; stroke-width: 1; stroke-dasharray: none; stroke-linecap: butt; stroke-dashoffset: 0; stroke-linejoin: miter; stroke-miterlimit: 4; fill: url(#SVGID_341531); fill-rule: nonzero; opacity: 1;"  paint-order="stroke"  transform=" translate(-626.1736845654768, -578.416609619376)" d="M 495.8 498 L 679.6 457.7 C 687 456.09999999999997 694.4 459.9 697.1 466.9 L 767.5 637.8 C 771.2 646.5999999999999 765.9 656.6999999999999 756.5 658.8 L 680.5 675.5 L 572.7 699.1 C 565.3000000000001 700.8000000000001 557.9000000000001 696.9 555.2 689.9 L 511.40000000000003 583.3 L 484.90000000000003 518.8 C 481.1 510 486.4 500 495.8 498 z" stroke-linecap="round" />
</g>
		<g transform="matrix(1 0 0 1 -179.85000000000002 -126.50000000000011)"  >
<linearGradient id="SVGID_341532" gradientUnits="userSpaceOnUse" gradientTransform="matrix(1 0 0 1 378.65994455794294 204.33694621056958)"  x1="0" y1="0" x2="0" y2="242">
<stop offset="0%" style="stop-color:rgb(250,217,97);stop-opacity: 1"/>
<stop offset="100%" style="stop-color:rgb(247,107,28);stop-opacity: 1"/>
</linearGradient>
<path style="stroke: none; stroke-width: 1; stroke-dasharray: none; stroke-linecap: butt; stroke-dashoffset: 0; stroke-linejoin: miter; stroke-miterlimit: 4; fill: url(#SVGID_341532); fill-rule: nonzero; opacity: 1;"  paint-order="stroke"  transform=" translate(-521.173684565477, -325.4166096193759)" d="M 390.8 245 L 574.6 204.7 C 582 203.1 589.4 206.89999999999998 592.1 213.89999999999998 L 662.5 384.79999999999995 C 666.2 393.59999999999997 660.9 403.69999999999993 651.5 405.79999999999995 L 575.5 422.49999999999994 L 467.7 446.09999999999997 C 460.3 447.79999999999995 452.9 443.9 450.2 436.9 L 406.4 330.29999999999995 L 379.9 265.79999999999995 C 376.1 257 381.4 247 390.8 245 z" stroke-linecap="round" />
</g>
</g>
</g>
		<g transform="matrix(0.23679433160515645 0 0 0.23679433160515645 42.02438979168744 -78.54460213508082)"  >
<linearGradient id="SVGID_341533" gradientUnits="userSpaceOnUse" gradientTransform="matrix(1 0 0 1 634.2471953602628 149.23694621056953)"  x1="0" y1="0" x2="0" y2="242">
<stop offset="0%" style="stop-color:rgb(250,217,97);stop-opacity: 1"/>
<stop offset="100%" style="stop-color:rgb(247,107,28);stop-opacity: 1"/>
</linearGradient>
<path style="stroke: none; stroke-width: 1; stroke-dasharray: none; stroke-linecap: butt; stroke-dashoffset: 0; stroke-linejoin: miter; stroke-miterlimit: 4; fill: url(#SVGID_341533); fill-rule: nonzero; opacity: 1;"  paint-order="stroke"  transform=" translate(-776.7173099666368, -270.31660961937587)" d="M 646.3 189.9 L 830.0999999999999 149.60000000000002 C 837.4999999999999 148.00000000000003 844.8999999999999 151.8 847.5999999999999 158.8 L 917.9999999999999 329.70000000000005 C 921.6999999999999 338.50000000000006 916.3999999999999 348.6 906.9999999999999 350.70000000000005 L 830.9999999999999 367.40000000000003 L 723.3 391 C 715.9 392.7 708.5 388.8 705.8 381.8 L 662 275.20000000000005 L 635.5 210.70000000000005 C 631.7 201.9 636.9 191.9 646.3 189.9 z" stroke-linecap="round" />
</g>
		<g transform="matrix(0.23679433160515645 0 0 0.23679433160515645 -48.609166718786696 13.043348217889275)"  >
<g style=""  paint-order="stroke"   >
		<g transform="matrix(1 0 0 1 -46.35000000000002 214.29999999999995)"  >
<path style="stroke: none; stroke-width: 1; stroke-dasharray: none; stroke-linecap: butt; stroke-dashoffset: 0; stroke-linejoin: miter; stroke-miterlimit: 4; fill: rgb(187,226,66); fill-rule: nonzero; opacity: 1;"  paint-order="stroke"  transform=" translate(-347.61508825551334, -871.3993072123601)" d="M 420.5 887.6 L 428 905.5 C 429.3 908.9 429.1 912.7 427.3 915.8 L 402.6 957.6999999999999 L 361.1 1028.3999999999999 C 356.3 1036.4999999999998 344.20000000000005 1035.8 340.5 1026.8 L 319 974.7 L 318.5 973.5 L 270.1 852.9 C 267.20000000000005 844.5 262.5 825.5 272.3 806.1999999999999 L 275.5 800.6999999999999 L 314.4 733.8 L 314.5 733.8 L 326 714.1999999999999 C 330.7 706.3 342.3 707.1999999999999 345.7 715.5999999999999 L 393.3 824.8 L 420.40000000000003 887.0999999999999 L 420.5 887.6 z" stroke-linecap="round" />
</g>
		<g transform="matrix(1 0 0 1 52.5 38.799999999999955)"  >
<path style="stroke: none; stroke-width: 1; stroke-dasharray: none; stroke-linecap: butt; stroke-dashoffset: 0; stroke-linejoin: miter; stroke-miterlimit: 4; fill: rgb(187,226,66); fill-rule: nonzero; opacity: 1;"  paint-order="stroke"  transform=" translate(-446.46508825551336, -695.8993072123601)" d="M 519.3 712.1 L 526.8 730 C 528.0999999999999 733.4 527.9 737.2 526.0999999999999 740.3 L 501.3999999999999 782.1999999999999 L 459.8999999999999 852.9 C 455.0999999999999 861 442.99999999999994 860.3 439.2999999999999 851.3 L 417.7999999999999 799.0999999999999 L 417.2999999999999 797.8999999999999 L 369 677.4 C 366.1 669 361.4 650 371.2 630.6999999999999 L 374.4 625.1999999999999 L 413.29999999999995 558.3 L 413.4 558.3 L 424.9 538.6999999999999 C 429.59999999999997 530.8 441.2 531.6999999999999 444.59999999999997 540.0999999999999 L 492.2 649.3 L 519.3 711.5999999999999 L 519.3 712.1 z" stroke-linecap="round" />
</g>
		<g transform="matrix(1 0 0 1 -52.450000000000045 -214.25)"  >
<path style="stroke: none; stroke-width: 1; stroke-dasharray: none; stroke-linecap: butt; stroke-dashoffset: 0; stroke-linejoin: miter; stroke-miterlimit: 4; fill: rgb(187,226,66); fill-rule: nonzero; opacity: 1;"  paint-order="stroke"  transform=" translate(-341.5150882555133, -442.84930721236015)" d="M 414.4 459.1 L 421.9 477 C 423.2 480.4 423 484.2 421.2 487.3 L 396.5 529.2 L 355 599.9000000000001 C 350.2 608.0000000000001 338.1 607.3000000000001 334.4 598.3000000000001 L 312.9 546.1 L 312.4 544.9 L 264 424.3 C 261.1 415.90000000000003 256.4 396.90000000000003 266.2 377.6 L 269.4 372.1 L 308.29999999999995 305.20000000000005 L 308.4 305.20000000000005 L 319.9 285.6 C 324.59999999999997 277.70000000000005 336.2 278.6 339.59999999999997 287 L 387.2 396.2 L 414.3 458.5 L 414.4 459.1 z" stroke-linecap="round" />
</g>
</g>
</g>
		<g transform="matrix(0.23679433160515645 0 0 0.23679433160515645 -84.23487390878245 3.867567868189383)"  >
<path style="stroke: none; stroke-width: 1; stroke-dasharray: none; stroke-linecap: butt; stroke-dashoffset: 0; stroke-linejoin: miter; stroke-miterlimit: 4; fill: rgb(187,226,66); fill-rule: nonzero; opacity: 1;"  paint-order="stroke"  transform=" translate(-243.51508825551332, -618.3493072123599)" d="M 316.4 634.5 L 323.9 652.4 C 325.2 655.8 325 659.6 323.2 662.6999999999999 L 298.5 704.5999999999999 L 257 775.4 C 252.2 783.5 240.1 782.8 236.4 773.8 L 214.9 721.5999999999999 L 214.4 720.3999999999999 L 166 599.8 C 163.1 591.4 158.4 572.4 168.2 553.0999999999999 L 171.39999999999998 547.5999999999999 L 210.29999999999998 480.69999999999993 L 210.39999999999998 480.69999999999993 L 221.89999999999998 461.0999999999999 C 226.59999999999997 453.19999999999993 238.2 454.0999999999999 241.59999999999997 462.4999999999999 L 289.2 571.6999999999999 L 316.3 633.9999999999999 L 316.4 634.5 z" stroke-linecap="round" />
</g>
</g>
</g>
<g transform="matrix(1.9211538461538462 0 0 1.9211538461538462 638.7291567307692 696.8164327181258)" id="text-logo"  >
<g style=""  paint-order="stroke"   >
		<g transform="matrix(1 0 0 1 0 0)" id="text-logo-path-0"  >
<path style="stroke: none; stroke-width: 0; stroke-dasharray: none; stroke-linecap: butt; stroke-dashoffset: 0; stroke-linejoin: miter; stroke-miterlimit: 4; fill: rgb(166,206,44); fill-rule: nonzero; opacity: 1;"  paint-order="stroke"  transform=" translate(-142.38, 20.535)" d="M 21.17 0 L 11.91 0 L 11.91 -14.62 L -0.5 -41.08 L 9.45 -41.08 L 13.1 -31.63 Q 13.99 -29.3 14.8 -27.12 Q 15.62 -24.95 16.44 -22.55 L 16.44 -22.55 L 16.7 -22.55 Q 17.58 -24.95 18.43 -27.12 Q 19.28 -29.3 20.16 -31.63 L 20.16 -31.63 L 23.88 -41.08 L 33.58 -41.08 L 21.17 -14.62 L 21.17 0 Z M 55.88 0.76 L 55.88 0.76 Q 47.88 0.76 43.66 -3.97 Q 39.44 -8.69 39.44 -19.03 L 39.44 -19.03 L 39.44 -41.08 L 48.76 -41.08 L 48.76 -18.08 Q 48.76 -12.03 50.59 -9.64 Q 52.42 -7.25 55.88 -7.25 L 55.88 -7.25 Q 59.35 -7.25 61.24 -9.64 Q 63.13 -12.03 63.13 -18.08 L 63.13 -18.08 L 63.13 -41.08 L 72.07 -41.08 L 72.07 -19.03 Q 72.07 -8.69 67.95 -3.97 Q 63.82 0.76 55.88 0.76 Z M 92.3 0 L 83.98 0 L 83.98 -41.08 L 94.12 -41.08 L 100.74 -22.81 Q 101.37 -21.04 101.93 -19.09 Q 102.5 -17.14 103.13 -15.25 L 103.13 -15.25 L 103.38 -15.25 Q 104.01 -17.14 104.55 -19.09 Q 105.08 -21.04 105.71 -22.81 L 105.71 -22.81 L 112.2 -41.08 L 122.28 -41.08 L 122.28 0 L 113.84 0 L 113.84 -15.06 Q 113.84 -18.08 114.28 -22.08 Q 114.72 -26.08 115.04 -29.04 L 115.04 -29.04 L 114.79 -29.04 L 111.45 -19.28 L 105.59 -3.59 L 100.49 -3.59 L 94.63 -19.28 L 91.35 -29.04 L 91.1 -29.04 Q 91.41 -26.08 91.85 -22.08 Q 92.3 -18.08 92.3 -15.06 L 92.3 -15.06 L 92.3 0 Z M 143.64 0 L 134.38 0 L 134.38 -41.08 L 143.64 -41.08 L 143.64 0 Z M 185.98 0 L 170.73 0 L 170.73 -41.08 L 184.78 -41.08 Q 191.14 -41.08 195.52 -38.93 Q 199.9 -36.79 199.9 -30.87 L 199.9 -30.87 Q 199.9 -28.1 198.48 -25.52 Q 197.06 -22.93 194.54 -21.99 L 194.54 -21.99 L 194.54 -21.73 Q 197.63 -20.92 199.77 -18.55 Q 201.92 -16.19 201.92 -12.1 L 201.92 -12.1 Q 201.92 -5.8 197.28 -2.9 Q 192.65 0 185.98 0 L 185.98 0 Z M 179.99 -33.89 L 179.99 -24.63 L 184.34 -24.63 Q 187.74 -24.63 189.28 -25.96 Q 190.83 -27.28 190.83 -29.48 L 190.83 -29.48 Q 190.83 -33.89 184.4 -33.89 L 184.4 -33.89 L 179.99 -33.89 Z M 179.99 -17.77 L 179.99 -7.18 L 185.22 -7.18 Q 192.84 -7.18 192.84 -12.73 L 192.84 -12.73 Q 192.84 -17.77 185.22 -17.77 L 185.22 -17.77 L 179.99 -17.77 Z M 227.93 0.76 L 227.93 0.76 Q 219.62 0.76 214.45 -4.95 Q 209.29 -10.65 209.29 -20.73 L 209.29 -20.73 Q 209.29 -30.81 214.45 -36.32 Q 219.62 -41.83 227.93 -41.83 L 227.93 -41.83 Q 236.25 -41.83 241.42 -36.29 Q 246.58 -30.74 246.58 -20.73 L 246.58 -20.73 Q 246.58 -10.65 241.42 -4.95 Q 236.25 0.76 227.93 0.76 Z M 227.93 -7.25 L 227.93 -7.25 Q 232.16 -7.25 234.61 -10.9 Q 237.07 -14.55 237.07 -20.73 L 237.07 -20.73 Q 237.07 -26.84 234.61 -30.33 Q 232.16 -33.83 227.93 -33.83 L 227.93 -33.83 Q 223.71 -33.83 221.26 -30.33 Q 218.8 -26.84 218.8 -20.73 L 218.8 -20.73 Q 218.8 -14.55 221.26 -10.9 Q 223.71 -7.25 227.93 -7.25 Z M 260.88 0 L 250.93 0 L 262.33 -21.11 L 251.62 -41.08 L 261.95 -41.08 L 265.55 -33.33 Q 266.24 -31.88 266.93 -30.27 Q 267.62 -28.66 268.51 -26.71 L 268.51 -26.71 L 268.76 -26.71 Q 269.45 -28.66 270.11 -30.27 Q 270.77 -31.88 271.4 -33.33 L 271.4 -33.33 L 274.68 -41.08 L 284.57 -41.08 L 273.92 -20.66 L 285.26 0 L 274.93 0 L 270.84 -8.38 Q 270.08 -9.95 269.36 -11.59 Q 268.63 -13.23 267.75 -15.12 L 267.75 -15.12 L 267.5 -15.12 Q 266.81 -13.23 266.08 -11.59 Q 265.36 -9.95 264.73 -8.38 L 264.73 -8.38 L 260.88 0 Z" stroke-linecap="round" />
</g>
</g>
</g>
<g transform="matrix(1.9211538461538462 0 0 1.9211538461538462 638.9119402606668 802.0770333981138)" id="tagline-29251b2a-76db-46a9-9af2-ab99a3dc2b62-logo"  >
<g style=""  paint-order="stroke"   >
		<g transform="matrix(1 0 0 1 0 0)" id="tagline-29251b2a-76db-46a9-9af2-ab99a3dc2b62-logo-path-0"  >
<path style="stroke: none; stroke-width: 0; stroke-dasharray: none; stroke-linecap: butt; stroke-dashoffset: 0; stroke-linejoin: miter; stroke-miterlimit: 4; fill: rgb(187,226,66); fill-rule: nonzero; opacity: 1;"  paint-order="stroke"  transform=" translate(-253.115, 12.32)" d="M 0.94 -1.23 L 0.94 -1.23 L 0.94 -23.34 Q 1.13 -24.58 2.17 -24.58 L 2.17 -24.58 L 2.17 -24.64 L 2.5 -24.58 L 15.21 -24.58 L 15.47 -24.64 Q 16.58 -24.64 16.77 -23.23 L 16.77 -23.23 Q 16.51 -22.05 15.35 -22.05 L 15.35 -22.05 L 3.47 -22.05 L 3.47 -13.3 L 11.25 -13.3 L 12.17 -13.36 Q 13.04 -13.36 13.33 -12.07 L 13.33 -12.07 Q 13.33 -11.21 12.29 -10.77 L 12.29 -10.77 L 10.99 -10.83 L 3.47 -10.83 L 3.47 -1.62 L 3.54 -1.23 Q 3.25 0 2.31 0 L 2.31 0 L 2.17 0 Q 0.94 -0.22 0.94 -1.23 Z M 27.3 -12.32 L 27.3 -12.32 Q 27.3 -18.18 32.46 -22.2 L 32.46 -22.2 Q 35.81 -24.52 39.57 -24.52 L 39.57 -24.52 Q 45.77 -24.52 49.94 -18.78 L 49.94 -18.78 Q 51.82 -15.52 51.82 -12.2 L 51.82 -12.2 Q 51.82 -6.07 46.27 -2 L 46.27 -2 Q 43.12 0 39.69 0 L 39.69 0 L 39.43 0 Q 33.11 0 29.11 -5.88 L 29.11 -5.88 Q 27.3 -8.85 27.3 -12.32 Z M 29.81 -12.13 L 29.81 -12.13 Q 29.81 -7.45 33.95 -4.26 L 33.95 -4.26 Q 36.53 -2.51 39.43 -2.51 L 39.43 -2.51 L 39.76 -2.51 Q 44.34 -2.51 47.5 -6.58 L 47.5 -6.58 Q 49.31 -9.19 49.31 -12.27 L 49.31 -12.27 Q 49.31 -17.55 44.47 -20.64 L 44.47 -20.64 Q 42.08 -22.01 39.57 -22.01 L 39.57 -22.01 Q 34.73 -22.01 31.55 -17.81 L 31.55 -17.81 Q 29.81 -15.3 29.81 -12.13 Z M 64.01 -12.27 L 64.01 -12.27 Q 64.01 -18.65 69.83 -22.66 L 69.83 -22.66 Q 72.94 -24.54 76.22 -24.54 L 76.22 -24.54 Q 80.03 -24.54 83.33 -22.22 L 83.33 -22.22 Q 83.58 -21.72 83.58 -21.45 L 83.58 -21.45 L 83.58 -21.31 Q 83.58 -20.22 82.23 -20.08 L 82.23 -20.08 L 82.16 -20.08 L 79.91 -21.24 Q 77.65 -21.96 76.22 -21.96 L 76.22 -21.96 Q 71.62 -21.96 68.27 -17.76 L 68.27 -17.76 Q 66.6 -14.94 66.6 -12.27 L 66.6 -12.27 Q 66.6 -6.89 71.64 -3.74 L 71.64 -3.74 Q 73.88 -2.58 76.1 -2.58 L 76.1 -2.58 L 76.29 -2.58 Q 79.12 -2.58 82.03 -4.39 L 82.03 -4.39 L 82.42 -4.39 Q 83.58 -4.14 83.58 -3.23 L 83.58 -3.23 L 83.58 -3.04 Q 83.58 -1.67 79.26 -0.39 L 79.26 -0.39 Q 77.91 0 76.42 0 L 76.42 0 L 76.1 0 Q 70.03 0 65.95 -5.62 L 65.95 -5.62 Q 64.01 -8.87 64.01 -12.27 Z M 95.94 -9.18 L 95.94 -9.18 L 95.94 -23.07 Q 96.1 -24.49 97.04 -24.49 L 97.04 -24.49 L 97.3 -24.49 Q 98.46 -24.25 98.46 -23.46 L 98.46 -23.46 L 98.46 -9.69 Q 98.46 -5.25 100.99 -3.74 L 100.99 -3.74 Q 102.58 -2.51 104.54 -2.51 L 104.54 -2.51 Q 108.32 -2.51 110.23 -6.39 L 110.23 -6.39 Q 110.63 -7.6 110.63 -8.92 L 110.63 -8.92 L 110.63 -23.28 Q 110.83 -24.49 111.79 -24.49 L 111.79 -24.49 L 111.98 -24.49 Q 113.14 -24.27 113.14 -23.33 L 113.14 -23.33 L 113.14 -8.27 Q 113.14 -4.43 109.45 -1.56 L 109.45 -1.56 Q 107.12 0 104.73 0 L 104.73 0 L 104.28 0 Q 100.27 0 97.3 -3.95 L 97.3 -3.95 Q 95.94 -6.07 95.94 -9.18 Z M 124.97 -3.2 L 124.83 -3.73 Q 125.06 -4.96 126.08 -4.96 L 126.08 -4.96 Q 126.76 -4.96 127.84 -3.59 L 127.84 -3.59 Q 129.45 -2.48 130.78 -2.48 L 130.78 -2.48 L 131.36 -2.48 Q 133.96 -2.48 135.55 -5.42 L 135.55 -5.42 Q 135.81 -6.37 135.81 -6.85 L 135.81 -6.85 L 135.81 -7.5 Q 135.81 -10.08 132.87 -11.69 L 132.87 -11.69 L 129.53 -12.61 Q 125.81 -14.75 125.81 -18.22 L 125.81 -18.22 L 125.81 -18.68 Q 125.81 -22.1 129.46 -24.03 L 129.46 -24.03 Q 130.83 -24.56 132.01 -24.56 L 132.01 -24.56 Q 135.19 -24.56 137.31 -21.69 L 137.31 -21.69 L 137.38 -21.41 L 137.38 -21.02 Q 137.38 -20.18 136.13 -19.98 L 136.13 -19.98 Q 135.62 -19.98 134.37 -21.36 L 134.37 -21.36 Q 133.24 -22.08 132.22 -22.08 L 132.22 -22.08 L 131.82 -22.08 Q 129.67 -22.08 128.56 -19.79 L 128.56 -19.79 Q 128.3 -19.24 128.3 -18.68 L 128.3 -18.68 L 128.3 -18.15 Q 128.3 -15.67 131.29 -14.56 L 131.29 -14.56 Q 133.45 -14.56 135.94 -12.54 L 135.94 -12.54 Q 138.35 -10.1 138.35 -7.18 L 138.35 -7.18 Q 138.35 -3.59 135.28 -1.3 L 135.28 -1.3 Q 133.4 0 131.11 0 L 131.11 0 Q 127.4 0 124.97 -3.2 L 124.97 -3.2 Z M 167.47 -12.32 L 167.47 -12.32 Q 167.47 -18.18 172.63 -22.2 L 172.63 -22.2 Q 175.98 -24.52 179.74 -24.52 L 179.74 -24.52 Q 185.94 -24.52 190.11 -18.78 L 190.11 -18.78 Q 191.99 -15.52 191.99 -12.2 L 191.99 -12.2 Q 191.99 -6.07 186.44 -2 L 186.44 -2 Q 183.29 0 179.86 0 L 179.86 0 L 179.6 0 Q 173.28 0 169.28 -5.88 L 169.28 -5.88 Q 167.47 -8.85 167.47 -12.32 Z M 169.98 -12.13 L 169.98 -12.13 Q 169.98 -7.45 174.12 -4.26 L 174.12 -4.26 Q 176.7 -2.51 179.6 -2.51 L 179.6 -2.51 L 179.93 -2.51 Q 184.51 -2.51 187.67 -6.58 L 187.67 -6.58 Q 189.48 -9.19 189.48 -12.27 L 189.48 -12.27 Q 189.48 -17.55 184.64 -20.64 L 184.64 -20.64 Q 182.25 -22.01 179.74 -22.01 L 179.74 -22.01 Q 174.9 -22.01 171.72 -17.81 L 171.72 -17.81 Q 169.98 -15.3 169.98 -12.13 Z M 203.76 -1.35 L 203.76 -1.35 L 203.76 -23.04 Q 203.91 -24.46 204.85 -24.46 L 204.85 -24.46 L 205.11 -24.46 Q 205.93 -24.46 206.53 -23.17 L 206.53 -23.17 Q 207.48 -22.1 220.56 -5.21 L 220.56 -5.21 Q 220.69 -5.21 220.69 -5.02 L 220.69 -5.02 L 220.74 -4.96 L 220.81 -4.96 L 220.81 -23.29 Q 221.03 -24.46 221.97 -24.46 L 221.97 -24.46 L 222.16 -24.46 Q 223.12 -24.46 223.32 -23.24 L 223.32 -23.24 L 223.32 -1.28 Q 223.32 -0.22 221.97 0 L 221.97 0 Q 221.24 0 219.72 -2.26 L 219.72 -2.26 L 206.27 -19.43 L 206.27 -1.23 Q 206.27 -0.27 205.04 -0.07 L 205.04 -0.07 L 204.99 -0.07 Q 204 -0.07 203.76 -1.35 Z M 253.21 -22.87 L 253.14 -23.26 Q 253.42 -24.49 254.24 -24.49 L 254.24 -24.49 L 254.51 -24.49 Q 255.35 -24.49 255.86 -23.26 L 255.86 -23.26 L 261.76 -14.44 L 261.82 -14.44 Q 268.18 -24.05 268.44 -24.23 L 268.44 -24.23 Q 268.78 -24.49 269.02 -24.49 L 269.02 -24.49 L 269.41 -24.49 Q 270.2 -24.49 270.51 -23.26 L 270.51 -23.26 Q 270.51 -22.71 268.3 -19.69 L 268.3 -19.69 L 263.05 -11.86 L 263.05 -1.42 Q 262.9 0 261.96 0 L 261.96 0 L 261.69 0 Q 260.85 0 260.53 -1.04 L 260.53 -1.04 L 260.53 -11.66 Q 260.53 -11.89 257.81 -15.94 L 257.81 -15.94 L 253.21 -22.87 Z M 281.81 -12.32 L 281.81 -12.32 Q 281.81 -18.18 286.97 -22.2 L 286.97 -22.2 Q 290.32 -24.52 294.08 -24.52 L 294.08 -24.52 Q 300.28 -24.52 304.45 -18.78 L 304.45 -18.78 Q 306.33 -15.52 306.33 -12.2 L 306.33 -12.2 Q 306.33 -6.07 300.78 -2 L 300.78 -2 Q 297.63 0 294.2 0 L 294.2 0 L 293.94 0 Q 287.62 0 283.62 -5.88 L 283.62 -5.88 Q 281.81 -8.85 281.81 -12.32 Z M 284.32 -12.13 L 284.32 -12.13 Q 284.32 -7.45 288.46 -4.26 L 288.46 -4.26 Q 291.04 -2.51 293.94 -2.51 L 293.94 -2.51 L 294.27 -2.51 Q 298.85 -2.51 302.01 -6.58 L 302.01 -6.58 Q 303.82 -9.19 303.82 -12.27 L 303.82 -12.27 Q 303.82 -17.55 298.98 -20.64 L 298.98 -20.64 Q 296.59 -22.01 294.08 -22.01 L 294.08 -22.01 Q 289.24 -22.01 286.06 -17.81 L 286.06 -17.81 Q 284.32 -15.3 284.32 -12.13 Z M 318.13 -9.18 L 318.13 -9.18 L 318.13 -23.07 Q 318.29 -24.49 319.23 -24.49 L 319.23 -24.49 L 319.48 -24.49 Q 320.64 -24.25 320.64 -23.46 L 320.64 -23.46 L 320.64 -9.69 Q 320.64 -5.25 323.17 -3.74 L 323.17 -3.74 Q 324.76 -2.51 326.73 -2.51 L 326.73 -2.51 Q 330.5 -2.51 332.42 -6.39 L 332.42 -6.39 Q 332.81 -7.6 332.81 -8.92 L 332.81 -8.92 L 332.81 -23.28 Q 333.02 -24.49 333.97 -24.49 L 333.97 -24.49 L 334.16 -24.49 Q 335.32 -24.27 335.32 -23.33 L 335.32 -23.33 L 335.32 -8.27 Q 335.32 -4.43 331.63 -1.56 L 331.63 -1.56 Q 329.31 0 326.92 0 L 326.92 0 L 326.47 0 Q 322.45 0 319.48 -3.95 L 319.48 -3.95 Q 318.13 -6.07 318.13 -9.18 Z M 347.16 -1.3 L 347.16 -1.3 L 347.16 -23.09 Q 347.31 -24.52 348.25 -24.52 L 348.25 -24.52 L 353.63 -24.52 Q 357.07 -24.52 359.26 -20.9 L 359.26 -20.9 Q 359.96 -19.5 359.96 -17.98 L 359.96 -17.98 L 359.96 -17.72 Q 359.96 -14.34 356.66 -12.17 L 356.66 -12.17 L 356.03 -11.84 Q 361.9 -1.71 361.9 -1.49 L 361.9 -1.49 L 361.9 -1.16 Q 361.9 -0.21 360.67 0 L 360.67 0 L 360.61 0 Q 359.68 0 358.67 -2.2 L 358.67 -2.2 L 353.36 -11.26 L 349.69 -11.26 L 349.69 -1.16 Q 349.69 -0.21 348.46 0 L 348.46 0 L 348.39 0 Q 347.4 0 347.16 -1.3 Z M 349.69 -22.06 L 349.69 -13.77 L 353.36 -13.77 Q 356.42 -13.77 357.38 -17.07 L 357.38 -17.07 L 357.44 -17.6 L 357.44 -18.12 Q 357.44 -20.54 354.73 -21.81 L 354.73 -21.81 Q 353.96 -22.06 352.33 -22.06 L 352.33 -22.06 L 349.69 -22.06 Z M 390.51 -23.31 L 390.51 -23.31 Q 390.78 -24.54 391.6 -24.54 L 391.6 -24.54 L 407.55 -24.54 Q 408.71 -24.32 408.71 -23.38 L 408.71 -23.38 L 408.71 -23.12 Q 408.71 -22.18 407.29 -22.03 L 407.29 -22.03 L 400.87 -22.03 L 400.87 -1.16 Q 400.87 -0.21 399.64 0 L 399.64 0 L 399.58 0 Q 398.59 0 398.35 -1.3 L 398.35 -1.3 L 398.35 -22.03 L 391.81 -22.03 Q 390.51 -22.29 390.51 -23.31 Z M 418.29 -12.32 L 418.29 -12.32 Q 418.29 -18.18 423.45 -22.2 L 423.45 -22.2 Q 426.8 -24.52 430.56 -24.52 L 430.56 -24.52 Q 436.76 -24.52 440.93 -18.78 L 440.93 -18.78 Q 442.81 -15.52 442.81 -12.2 L 442.81 -12.2 Q 442.81 -6.07 437.26 -2 L 437.26 -2 Q 434.11 0 430.68 0 L 430.68 0 L 430.42 0 Q 424.1 0 420.1 -5.88 L 420.1 -5.88 Q 418.29 -8.85 418.29 -12.32 Z M 420.8 -12.13 L 420.8 -12.13 Q 420.8 -7.45 424.93 -4.26 L 424.93 -4.26 Q 427.52 -2.51 430.42 -2.51 L 430.42 -2.51 L 430.75 -2.51 Q 435.33 -2.51 438.49 -6.58 L 438.49 -6.58 Q 440.3 -9.19 440.3 -12.27 L 440.3 -12.27 Q 440.3 -17.55 435.46 -20.64 L 435.46 -20.64 Q 433.07 -22.01 430.56 -22.01 L 430.56 -22.01 Q 425.72 -22.01 422.54 -17.81 L 422.54 -17.81 Q 420.8 -15.3 420.8 -12.13 Z M 454.58 -12.32 L 454.58 -12.32 Q 454.58 -18.18 459.74 -22.2 L 459.74 -22.2 Q 463.09 -24.52 466.85 -24.52 L 466.85 -24.52 Q 473.05 -24.52 477.22 -18.78 L 477.22 -18.78 Q 479.1 -15.52 479.1 -12.2 L 479.1 -12.2 Q 479.1 -6.07 473.54 -2 L 473.54 -2 Q 470.4 0 466.97 0 L 466.97 0 L 466.71 0 Q 460.39 0 456.39 -5.88 L 456.39 -5.88 Q 454.58 -8.85 454.58 -12.32 Z M 457.09 -12.13 L 457.09 -12.13 Q 457.09 -7.45 461.22 -4.26 L 461.22 -4.26 Q 463.8 -2.51 466.71 -2.51 L 466.71 -2.51 L 467.03 -2.51 Q 471.61 -2.51 474.78 -6.58 L 474.78 -6.58 Q 476.59 -9.19 476.59 -12.27 L 476.59 -12.27 Q 476.59 -17.55 471.75 -20.64 L 471.75 -20.64 Q 469.36 -22.01 466.85 -22.01 L 466.85 -22.01 Q 462.01 -22.01 458.83 -17.81 L 458.83 -17.81 Q 457.09 -15.3 457.09 -12.13 Z M 491 -1.3 L 491 -1.3 L 491 -23.07 Q 491.15 -24.49 492.09 -24.49 L 492.09 -24.49 L 492.35 -24.49 Q 493.51 -24.25 493.51 -23.46 L 493.51 -23.46 L 493.51 -2.51 L 504.06 -2.51 Q 505.1 -2.51 505.29 -1.16 L 505.29 -1.16 Q 504.95 0 504.06 0 L 504.06 0 L 492.23 0 Q 491.24 0 491 -1.3 Z" stroke-linecap="round" />
</g>
</g>
</g>
</svg>